<svg width="9" height="12" viewBox="0 0 9 12" fill="none" xmlns="http://www.w3.org/2000/svg">
<path fill-rule="evenodd" clip-rule="evenodd" d="M5.34209 10.5065V9.81023C5.33603 9.52654 5.38058 9.24405 5.47367 8.97595C5.55898 8.74733 5.67399 8.53089 5.81578 8.33218C5.96409 8.12034 6.13145 7.92245 6.31578 7.74097C6.49999 7.55047 6.69078 7.3731 6.88156 7.18917C7.07235 7.00523 7.26314 6.80159 7.44735 6.59795C7.63474 6.39711 7.80014 6.1769 7.94078 5.94104C8.28317 5.39413 8.45915 4.75971 8.44735 4.11484C8.4571 3.59359 8.36318 3.07558 8.17104 2.59082C7.99648 2.16674 7.73158 1.78568 7.39472 1.47408C7.04739 1.16124 6.64003 0.922109 6.19735 0.771187C5.70336 0.606093 5.18537 0.52396 4.66446 0.528131C4.0871 0.521324 3.51428 0.630799 2.98025 0.850016C2.49011 1.05565 2.0519 1.36754 1.69736 1.76312C1.34302 2.16322 1.07237 2.63001 0.901302 3.13605C0.70831 3.68189 0.619062 4.2589 0.638144 4.83744C0.638144 5.25829 0.979822 5.59945 1.4013 5.59945C1.82278 5.59945 2.16446 5.25829 2.16446 4.83744C2.15979 4.44511 2.20848 4.05397 2.3092 3.67472C2.39417 3.33574 2.54876 3.01809 2.76314 2.74191C2.97309 2.46863 3.24028 2.24443 3.54604 2.085C3.89431 1.9249 4.27458 1.84626 4.65788 1.85508C5.22242 1.82536 5.7751 2.02431 6.19078 2.40688C6.59698 2.82035 6.83194 3.37167 6.84867 3.95062C6.87704 4.33417 6.82321 4.71935 6.69078 5.0805C6.55915 5.38933 6.37928 5.67536 6.15788 5.92791C5.93409 6.18752 5.69461 6.43322 5.44078 6.66364C5.1804 6.90299 4.93436 7.15744 4.70393 7.42565C4.46748 7.71245 4.26852 8.02811 4.11183 8.36503C3.94161 8.77115 3.85008 9.20582 3.84209 9.646V10.5C3.84209 10.9208 4.18377 11.262 4.60525 11.262C5.02673 11.262 5.36841 10.9208 5.36841 10.5" fill="#212A2F"/>
</svg>
