<svg width="34" height="29" viewBox="0 0 34 29" fill="none" xmlns="http://www.w3.org/2000/svg">
<path fill-rule="evenodd" clip-rule="evenodd" d="M8.4296 4.21424L11.5266 19.7802L28.3366 18.7912L31.7276 4.03424H20.0506L8.4296 4.21424ZM11.0356 21.0172C10.7506 21.0172 10.5006 20.8152 10.4446 20.5312L7.1386 3.91124L4.5696 1.20724H0.603603C0.270603 1.20724 -0.000396729 0.937244 -0.000396729 0.604244C-0.000396729 0.270244 0.270603 0.000244141 0.603603 0.000244141H4.8286C4.9946 0.000244141 5.1526 0.0682441 5.2666 0.188244L7.9516 3.01424L20.0416 2.82724H32.4856C32.6696 2.82724 32.8436 2.91124 32.9576 3.05524C33.0726 3.19924 33.1156 3.38724 33.0736 3.56624L29.4116 19.5022C29.3516 19.7632 29.1266 19.9542 28.8596 19.9692L11.0726 21.0162C11.0606 21.0172 11.0486 21.0172 11.0356 21.0172Z" fill="#231F20"/>
<path fill-rule="evenodd" clip-rule="evenodd" d="M29.4276 23.4718H11.1166C10.7836 23.4718 10.5126 23.2008 10.5126 22.8678V20.4128C10.5126 20.0798 10.7836 19.8098 11.1166 19.8098C11.4496 19.8098 11.7206 20.0798 11.7206 20.4128V22.2638H29.4276C29.7606 22.2638 30.0316 22.5348 30.0316 22.8678C30.0316 23.2008 29.7606 23.4718 29.4276 23.4718Z" fill="#231F20"/>
<path fill-rule="evenodd" clip-rule="evenodd" d="M14.4169 26.2786C14.4169 27.5786 13.3629 28.6326 12.0629 28.6326C10.7629 28.6326 9.70889 27.5786 9.70889 26.2786C9.70889 24.9786 10.7629 23.9246 12.0629 23.9246C13.3629 23.9246 14.4169 24.9786 14.4169 26.2786Z" fill="#231F20"/>
<path fill-rule="evenodd" clip-rule="evenodd" d="M30.2723 26.2786C30.2723 27.5786 29.2183 28.6326 27.9183 28.6326C26.6183 28.6326 25.5643 27.5786 25.5643 26.2786C25.5643 24.9786 26.6183 23.9246 27.9183 23.9246C29.2183 23.9246 30.2723 24.9786 30.2723 26.2786Z" fill="#231F20"/>
</svg>
