<svg width="20" height="25" viewBox="0 0 20 25" fill="none" xmlns="http://www.w3.org/2000/svg">
<path d="M9.60512 12.0446C6.46079 12.0446 3.9118 9.49561 3.9118 6.35128C3.9118 3.20695 6.46079 0.657959 9.60512 0.657959C12.7495 0.657959 15.2984 3.20695 15.2984 6.35128C15.2984 7.86124 14.6986 9.30936 13.6309 10.3771C12.5632 11.4448 11.1151 12.0446 9.60512 12.0446ZM9.60512 1.92314C7.15953 1.92314 5.17699 3.90569 5.17699 6.35128C5.17699 8.79687 7.15953 10.7794 9.60512 10.7794C12.0507 10.7794 14.0333 8.79687 14.0333 6.35128C14.0417 5.17139 13.5789 4.03694 12.7475 3.19965C11.9162 2.36236 10.785 1.89151 9.60512 1.89151V1.92314Z" fill="#212A2F"/>
<path d="M17.367 24.3738H1.84322C1.33031 24.3783 0.8391 24.1672 0.489476 23.7918C0.196145 23.4756 0.0472368 23.0518 0.0782915 22.6215C0.59069 17.0294 4.68356 12.8101 9.60511 12.8101C14.5267 12.8101 18.6195 16.9978 19.1319 22.6215C19.1721 23.0624 19.0225 23.4996 18.7208 23.8235C18.3656 24.1871 17.8751 24.3865 17.367 24.3738ZM9.60511 14.0436C5.34145 14.0436 1.78629 17.7696 1.33715 22.7038C1.33165 22.7909 1.36392 22.8762 1.42571 22.9378C1.53499 23.0505 1.68633 23.1124 1.84322 23.1086H17.367C17.5239 23.1124 17.6752 23.0505 17.7845 22.9378C17.8463 22.8762 17.8786 22.7909 17.8731 22.7038C17.4239 17.7696 13.8688 14.0436 9.60511 14.0436Z" fill="#212A2F"/>
</svg>
